<?xml version="1.0" standalone="no"?>
<!DOCTYPE svg PUBLIC "-//W3C//DTD SVG 20010904//EN"
 "http://www.w3.org/TR/2001/REC-SVG-20010904/DTD/svg10.dtd">
<svg version="1.0" xmlns="http://www.w3.org/2000/svg"
 width="260.000000pt" height="260.000000pt" viewBox="0 0 260.000000 260.000000"
 preserveAspectRatio="xMidYMid meet">
<metadata>
Created by potrace 1.11, written by Peter Selinger 2001-2013
</metadata>
<g transform="translate(0.000000,260.000000) scale(0.100000,-0.100000)"
fill="#000000" stroke="none">
<path d="M440 1820 l0 -70 -70 0 -70 0 0 -275 0 -275 70 0 70 0 0 -70 0 -70
275 0 275 0 0 70 0 70 70 0 70 0 0 105 0 105 170 0 170 0 0 -105 0 -105 70 0
70 0 0 -70 0 -70 275 0 275 0 0 70 0 70 70 0 70 0 0 275 0 275 -70 0 -70 0 0
70 0 70 -275 0 -275 0 0 -70 0 -70 -70 0 -70 0 0 -100 0 -100 -170 0 -170 0 0
100 0 100 -70 0 -70 0 0 70 0 70 -275 0 -275 0 0 -70z m550 -345 l0 -275 -275
0 -275 0 0 275 0 275 275 0 275 0 0 -275z m1170 0 l0 -275 -275 0 -275 0 0
275 0 275 275 0 275 0 0 -275z"/>
<path d="M580 1470 l0 -140 140 0 140 0 0 140 0 140 -140 0 -140 0 0 -140z"/>
<path d="M1750 1470 l0 -140 140 0 140 0 0 140 0 140 -140 0 -140 0 0 -140z"/>
<path d="M990 790 l0 -70 310 0 310 0 0 70 0 70 -310 0 -310 0 0 -70z"/>
</g>
</svg>
